Coordinates
nRows=5
nColumns=38

# SIMM Motion File Header:
name Coordinates
datacolumns 38
datarows 5
otherdata 1
range 1.56749999999999990000 1.57149999999999990000

Units are S.I. units (second, meters, Newtons, ...)
Angles are in degrees.

endheader
time	pelvis_tilt	pelvis_list	pelvis_rotation	pelvis_tx	pelvis_ty	pelvis_tz	hip_flexion_r	hip_adduction_r	hip_rotation_r	knee_angle_r	ankle_angle_r	subtalar_angle_r	mtp_angle_r	hip_flexion_l	hip_adduction_l	hip_rotation_l	knee_angle_l	ankle_angle_l	subtalar_angle_l	mtp_angle_l	lumbar_extension	lumbar_bending	lumbar_rotation	arm_flex_r	arm_add_r	arm_rot_r	elbow_flex_r	pro_sup_r	wrist_flex_r	wrist_dev_r	arm_flex_l	arm_add_l	arm_rot_l	elbow_flex_l	pro_sup_l	wrist_flex_l	wrist_dev_l
      1.56749999999999990000	     -7.07904043471415090000	     -1.06261445085095500000	     -1.03865765094966120000	      0.91989525760140411000	      0.99726282320762971000	     -0.32708337835201101000	     -1.75283388874672160000	      8.75449919135124690000	      7.45667124398814620000	    -26.53565757062037300000	     15.17769121079463100000	     -0.00000000000002249124	      0.00000000000005541085	     46.34305549517382200000	      4.64818568603948630000	      4.34618332849337640000	    -97.41978084755660900000	      4.08547790809149180000	     -0.00000000000000371165	      0.00000000000000551099	     -3.00428019039269860000	      5.38987059575074670000	     13.73134451113034500000	    -18.24224489763445700000	    -14.22101499442604000000	     -9.38009288965857730000	    120.99918605143640000000	     99.23312934283747200000	      0.00000000000000271536	     -0.00000000000000781044	    -31.75458907676856400000	    -22.22464537230371900000	      0.41258984871633642000	    119.97922166116550000000	     89.82227689325790700000	      0.00000000000000563559	     -0.00000000000000068422
      1.56850000000000000000	     -7.07910260019209490000	     -0.95128166966734695000	     -0.99021032262717545000	      0.92031851673065745000	      0.99794291157571768000	     -0.32721962536407295000	     -2.18112139096545610000	      8.57710688575470570000	      7.44416175345884050000	    -26.13760526722093800000	     14.54189278103042700000	     -0.00000000000002299471	      0.00000000000005620877	     46.43897920436894800000	      4.78291535793502830000	      4.34175029528570280000	    -96.93942208243896600000	      4.14540557194642020000	     -0.00000000000000385851	      0.00000000000000559546	     -2.93647014776808790000	      5.26616023851617850000	     13.77858737342952200000	    -18.26551211720106200000	    -14.23080504557257300000	     -9.25484440479638510000	    121.23642704490167000000	     99.40619469395268500000	      0.00000000000000277175	     -0.00000000000000793033	    -31.96936519503263300000	    -22.18376814663715300000	      0.30731195560237012000	    120.12709274398476000000	     89.78198557360900600000	      0.00000000000000566186	     -0.00000000000000068257
      1.56949999999999990000	     -7.07805856590149760000	     -0.83928385319780818000	     -0.94055405455372942000	      0.92074593466647414000	      0.99862760521596050000	     -0.32735917801366632000	     -2.60854732107824860000	      8.39853371154993230000	      7.42489037533293230000	    -25.73888944055834600000	     13.89398050633099400000	     -0.00000000000002346502	      0.00000000000005703273	     46.52900835149950600000	      4.91869218387683470000	      4.33730515640111670000	    -96.45270349489432200000	      4.20446659839132940000	     -0.00000000000000400302	      0.00000000000000568743	     -2.86979049751906600000	      5.14161973619208010000	     13.82261812701471900000	    -18.28942499381492200000	    -14.23963076639567000000	     -9.12882140655299420000	    121.47094024213416000000	     99.58054745613282000000	      0.00000000000000282823	     -0.00000000000000804883	    -32.18588462402514200000	    -22.13997185101703400000	      0.19903898954765581000	    120.27447779626283000000	     89.74361628818218200000	      0.00000000000000568829	     -0.00000000000000069008
      1.57050000000000000000	     -7.07599144510434200000	     -0.72672360541699921000	     -0.88971201095557595000	      0.92117711726749540000	      0.99931647925248202000	     -0.32750195951782585000	     -3.03487293871880890000	      8.21896860444714680000	      7.39877242706979650000	    -25.33978225203473400000	     13.23437282187997400000	     -0.00000000000002391744	      0.00000000000005783303	     46.61327394814351500000	      5.05541965128207420000	      4.33297030433753960000	    -95.95970211432833700000	      4.26251340977672570000	     -0.00000000000000414787	      0.00000000000000577891	     -2.80421292245495210000	      5.01636277507936870000	     13.86349741442441900000	    -18.31399390245369200000	    -14.24751459165843300000	     -9.00210135937188840000	    121.70272399613059000000	     99.75588059730606000000	      0.00000000000000288373	     -0.00000000000000816664	    -32.40403130145782000000	    -22.09327198929509000000	      0.08786948029245265900	    120.42133393486942000000	     89.70705749239377300000	      0.00000000000000571509	     -0.00000000000000070111
      1.57149999999999990000	     -7.07299950801663790000	     -0.61370953692371855000	     -0.83771399331823393000	      0.92161165760001840000	      1.00000908565038870000	     -0.32764787638051057000	     -3.45983801619891600000	      8.03860987445153620000	      7.36574585180214300000	    -24.94057359784019200000	     12.56352119744695300000	     -0.00000000000002437893	      0.00000000000005863408	     46.69192493839706500000	      5.19299044066462120000	      4.32886770138064670000	    -95.46049722005616900000	      4.31940199466014270000	     -0.00000000000000429356	      0.00000000000000587860	     -2.73969237814920770000	      4.89050924600121300000	     13.90129322140929000000	    -18.33922941028150100000	    -14.25448085355242800000	     -8.87475893318005050000	    121.93177643911052000000	     99.93187716151052800000	      0.00000000000000293932	     -0.00000000000000828416	    -32.62368783434969500000	    -22.04368799295977500000	     -0.02609566493796827400	    120.56761996526761000000	     89.67220219537783500000	      0.00000000000000574175	     -0.00000000000000070848
